<svg viewBox="0 0 100 100" xmlns="http://www.w3.org/2000/svg"><title>background</title><path fill="none" d="M-1-1h582v402H-1z"/><title>Layer 1</title><path fill="#000000" d="M62.228 50.068L89.02 23.276a1.647 1.647 0 0 0 0-2.33l-9.898-9.9a1.649 1.649 0 0 0-2.329 0L50 37.84 23.207 11.046c-.618-.617-1.711-.617-2.33 0l-9.898 9.9a1.647 1.647 0 0 0 0 2.33l26.793 26.792L10.979 76.86a1.647 1.647 0 0 0 0 2.33l9.899 9.899a1.648 1.648 0 0 0 2.329 0L50 62.296l26.793 26.793a1.648 1.648 0 0 0 2.33 0l9.898-9.9a1.647 1.647 0 0 0 0-2.329L62.228 50.068z" stroke="null"/></svg>